<?xml version="1.0" encoding="utf-8"?>
<!-- Generator: Adobe Illustrator 18.1.1, SVG Export Plug-In . SVG Version: 6.00 Build 0)  -->
<!DOCTYPE svg PUBLIC "-//W3C//DTD SVG 1.1//EN" "http://www.w3.org/Graphics/SVG/1.1/DTD/svg11.dtd">
<svg version="1.1" id="Layer_1" xmlns="http://www.w3.org/2000/svg" xmlns:xlink="http://www.w3.org/1999/xlink" x="0px" y="0px"
	 viewBox="0 0 32 32" enable-background="new 0 0 32 32" xml:space="preserve">
<g>
	<g>
		<path fill="#5EC1EC" d="M30,23c0,1.3-1,2.3-2.3,2.3H4.3C3,25.3,2,24.3,2,23V9c0-1.3,1-2.3,2.3-2.3h23.3C29,6.7,30,7.7,30,9V23z"/>
		<path fill="#5BBBE6" d="M29.3,7.4C29.7,7.8,30,8.4,30,9v7v7c0,0.6-0.3,1.2-0.7,1.6c-0.4,0.4-1,0.7-1.6,0.7H16H4.3
			c-0.6,0-1.2-0.3-1.6-0.7L29.3,7.4z"/>
		<g>
			<path fill="#FFFFFF" d="M10.2,18.3L10,17.5H8.6l-0.2,0.8H7.1l1.4-4.3H10l1.4,4.3H10.2z M9.7,16.5l-0.2-0.7c0-0.2-0.1-0.4-0.2-0.6
				c-0.1-0.3-0.1-0.4-0.1-0.5c0,0.1-0.1,0.3-0.1,0.5c-0.1,0.2-0.2,0.7-0.3,1.4L9.7,16.5L9.7,16.5z"/>
			<path fill="#FFFFFF" d="M13.8,18.3l-0.9-3.1h0c0,0.5,0.1,0.9,0.1,1.2v1.9h-1V14h1.6l0.9,3.1h0l0.9-3.1h1.6v4.3h-1.1v-1.9
				c0-0.1,0-0.2,0-0.3c0-0.1,0-0.4,0-0.9h0l-0.9,3.1L13.8,18.3L13.8,18.3z"/>
			<path fill="#FFFFFF" d="M20.3,18.3h-2.6V14h2.6v0.9h-1.4v0.7h1.3v0.9h-1.3v0.8h1.4V18.3z"/>
			<path fill="#FFFFFF" d="M24.9,18.3h-1.4l-0.8-1.4l-0.8,1.4h-1.3l1.4-2.2L20.6,14h1.3l0.8,1.3l0.8-1.3h1.3l-1.4,2.2L24.9,18.3z"/>
		</g>
		<g>
			<path fill="#FFFFFF" d="M10.2,18.3L10,17.5H8.6l-0.2,0.8H7.1l1.4-4.3H10l1.4,4.3H10.2z M9.7,16.5l-0.2-0.7c0-0.2-0.1-0.4-0.2-0.6
				c-0.1-0.3-0.1-0.4-0.1-0.5c0,0.1-0.1,0.3-0.1,0.5c-0.1,0.2-0.2,0.7-0.3,1.4L9.7,16.5L9.7,16.5z"/>
			<path fill="#FFFFFF" d="M13.8,18.3l-0.9-3.1h0c0,0.5,0.1,0.9,0.1,1.2v1.9h-1V14h1.6l0.9,3.1h0l0.9-3.1h1.6v4.3h-1.1v-1.9
				c0-0.1,0-0.2,0-0.3c0-0.1,0-0.4,0-0.9h0l-0.9,3.1L13.8,18.3L13.8,18.3z"/>
			<path fill="#FFFFFF" d="M20.3,18.3h-2.6V14h2.6v0.9h-1.4v0.7h1.3v0.9h-1.3v0.8h1.4V18.3z"/>
			<path fill="#FFFFFF" d="M24.9,18.3h-1.4l-0.8-1.4l-0.8,1.4h-1.3l1.4-2.2L20.6,14h1.3l0.8,1.3l0.8-1.3h1.3l-1.4,2.2L24.9,18.3z"/>
		</g>
		<path fill="#56B1D9" d="M16,6.7"/>
	</g>
	<g>
		<path fill="#9BCEE0" d="M27.7,7.1c1,0,1.9,0.8,1.9,1.9v14c0,1-0.8,1.9-1.9,1.9H4.3c-1,0-1.9-0.8-1.9-1.9V9c0-1,0.8-1.9,1.9-1.9
			H27.7 M27.7,6.7H4.3C3,6.7,2,7.7,2,9v14c0,1.3,1,2.3,2.3,2.3h23.3c1.3,0,2.3-1.1,2.3-2.3V9C30,7.7,29,6.7,27.7,6.7L27.7,6.7z"/>
	</g>
</g>
</svg>
