<?xml version="1.0" encoding="utf-8"?>
<!-- Generator: Adobe Illustrator 19.2.1, SVG Export Plug-In . SVG Version: 6.00 Build 0)  -->
<svg version="1.1" id="Layer_1" xmlns="http://www.w3.org/2000/svg" xmlns:xlink="http://www.w3.org/1999/xlink" x="0px" y="0px"
	 viewBox="0 0 32 32" style="enable-background:new 0 0 32 32;" xml:space="preserve">
<style type="text/css">
	.st0{fill:#CDCDCD;}
	.st1{fill:#424143;}
	.st2{fill:#FFFFFF;}
	.st3{fill:#DFDEDD;}
</style>
<g>
	<path class="st0" d="M29.5,22.9c0,1.3-1,2.3-2.3,2.3H4.4c-1.3,0-2.3-1-2.3-2.3V9.1c0-1.3,1-2.3,2.3-2.3h22.8c1.3,0,2.3,1,2.3,2.3
		C29.5,9.1,29.5,22.9,29.5,22.9z"/>
</g>
<rect x="2.6" y="9.7" class="st1" width="26.4" height="3.7"/>
<rect x="5.7" y="15.2" class="st2" width="16.4" height="3.7"/>
<rect x="7" y="16.6" class="st1" width="13.2" height="0.9"/>
<g>
	<g>
		<path class="st3" d="M27.2,7.3c1,0,1.8,0.8,1.8,1.8v13.7c0,1-0.8,1.8-1.8,1.8H4.4c-1,0-1.8-0.8-1.8-1.8V9.1c0-1,0.8-1.8,1.8-1.8
			H27.2 M27.2,6.9H4.4c-1.3,0-2.3,1-2.3,2.3v13.7c0,1.3,1,2.3,2.3,2.3h22.8c1.3,0,2.3-1,2.3-2.3V9.1C29.5,7.9,28.5,6.9,27.2,6.9
			L27.2,6.9z"/>
	</g>
</g>
<rect x="23.5" y="15.2" class="st2" width="3.7" height="3.7"/>
<rect x="23.9" y="16.6" class="st1" width="2.7" height="0.9"/>
</svg>
