<?xml version="1.0" encoding="utf-8"?>
<!-- Generator: Adobe Illustrator 18.1.1, SVG Export Plug-In . SVG Version: 6.00 Build 0)  -->
<!DOCTYPE svg PUBLIC "-//W3C//DTD SVG 1.1//EN" "http://www.w3.org/Graphics/SVG/1.1/DTD/svg11.dtd">
<svg version="1.1" id="Layer_1" xmlns="http://www.w3.org/2000/svg" xmlns:xlink="http://www.w3.org/1999/xlink" x="0px" y="0px"
	 viewBox="0 0 32 32" enable-background="new 0 0 32 32" xml:space="preserve">
<g>
	<path fill="#CDCDCD" d="M29.5,22.9c0,1.3-1,2.3-2.3,2.3H4.4c-1.3,0-2.3-1-2.3-2.3V9.1c0-1.3,1-2.3,2.3-2.3h22.8
		c1.3,0,2.3,1,2.3,2.3V22.9z"/>
</g>
<rect x="2.6" y="9.7" fill="#424143" width="26.4" height="3.7"/>
<rect x="5.7" y="15.2" fill="#FFFFFF" width="16.4" height="3.7"/>
<rect x="7" y="16.6" fill="#424143" width="13.2" height="0.9"/>
<g>
	<g>
		<path fill="#DFDEDD" d="M27.2,7.3c1,0,1.8,0.8,1.8,1.8v13.7c0,1-0.8,1.8-1.8,1.8H4.4c-1,0-1.8-0.8-1.8-1.8V9.1
			c0-1,0.8-1.8,1.8-1.8H27.2 M27.2,6.9H4.4c-1.3,0-2.3,1-2.3,2.3v13.7c0,1.3,1,2.3,2.3,2.3h22.8c1.3,0,2.3-1,2.3-2.3V9.1
			C29.5,7.9,28.5,6.9,27.2,6.9L27.2,6.9z"/>
	</g>
</g>
<rect x="23.5" y="15.2" fill="#FFFFFF" width="3.7" height="3.7"/>
<rect x="23.9" y="16.6" fill="#424143" width="2.7" height="0.9"/>
<circle fill="none" stroke="#E9564B" stroke-width="2" stroke-miterlimit="10" cx="25.1" cy="17" r="3.5"/>
</svg>
