<?xml version="1.0" encoding="utf-8"?>
<!-- Generator: Adobe Illustrator 18.1.1, SVG Export Plug-In . SVG Version: 6.00 Build 0)  -->
<!DOCTYPE svg PUBLIC "-//W3C//DTD SVG 1.1//EN" "http://www.w3.org/Graphics/SVG/1.1/DTD/svg11.dtd">
<svg version="1.1" id="Layer_1" xmlns="http://www.w3.org/2000/svg" xmlns:xlink="http://www.w3.org/1999/xlink" x="0px" y="0px"
	 viewBox="0 0 32 32" enable-background="new 0 0 32 32" xml:space="preserve">
<g>
	<path fill="#FFF9F0" d="M30,23c0,1.3-1,2.3-2.3,2.3H4.4c-1.3,0-2.3-1-2.3-2.3V9c0-1.3,1-2.3,2.3-2.3h23.3c1.3,0,2.3,1,2.3,2.3V23z"
		/>
	<g>
		<path fill="#414042" d="M9.1,16c0,0.5-0.1,0.8-0.4,1.1c-0.3,0.2-0.6,0.4-1.2,0.4H6.7v-2.8h0.9c0.5,0,0.8,0.1,1.1,0.4
			C9,15.2,9.1,15.5,9.1,16z M8.5,16c0-0.6-0.3-0.9-0.8-0.9H7.3v1.8h0.3C8.2,16.9,8.5,16.6,8.5,16z"/>
		<path fill="#414042" d="M9.6,17.4v-2.8h0.6v2.8H9.6z"/>
		<path fill="#414042" d="M12.6,16.6c0,0.3-0.1,0.5-0.3,0.6c-0.2,0.1-0.4,0.2-0.8,0.2c-0.3,0-0.6-0.1-0.8-0.2v-0.6
			c0.2,0.1,0.4,0.1,0.5,0.2c0.1,0,0.3,0.1,0.4,0.1c0.1,0,0.2,0,0.3-0.1c0.1,0,0.1-0.1,0.1-0.2c0-0.1,0-0.1,0-0.1
			c0,0-0.1-0.1-0.1-0.1c-0.1,0-0.2-0.1-0.4-0.2C11.3,16.1,11.1,16,11,16c-0.1-0.1-0.2-0.2-0.2-0.3c-0.1-0.1-0.1-0.2-0.1-0.3
			c0-0.3,0.1-0.4,0.3-0.6c0.2-0.1,0.4-0.2,0.7-0.2c0.1,0,0.3,0,0.4,0.1c0.1,0,0.3,0.1,0.4,0.1l-0.2,0.5c-0.2-0.1-0.3-0.1-0.4-0.1
			c-0.1,0-0.2,0-0.3,0c-0.1,0-0.2,0-0.3,0.1c-0.1,0.1-0.1,0.1-0.1,0.2c0,0.1,0,0.1,0,0.1c0,0,0.1,0.1,0.1,0.1s0.2,0.1,0.4,0.2
			c0.3,0.1,0.4,0.3,0.5,0.4C12.5,16.3,12.6,16.4,12.6,16.6z"/>
		<path fill="#414042" d="M14.3,15c-0.2,0-0.4,0.1-0.5,0.3c-0.1,0.2-0.2,0.4-0.2,0.7c0,0.6,0.2,0.9,0.7,0.9c0.2,0,0.4,0,0.7-0.1v0.5
			c-0.2,0.1-0.5,0.1-0.8,0.1c-0.4,0-0.7-0.1-0.9-0.4C13.1,16.8,13,16.5,13,16c0-0.3,0.1-0.6,0.2-0.8c0.1-0.2,0.3-0.4,0.5-0.5
			c0.2-0.1,0.4-0.2,0.7-0.2c0.3,0,0.6,0.1,0.8,0.2l-0.2,0.5c-0.1-0.1-0.2-0.1-0.3-0.1C14.5,15.1,14.4,15,14.3,15z"/>
		<path fill="#414042" d="M19.8,14.6h0.6l-1,2.8h-0.7l-1-2.8h0.6l0.5,1.7c0,0.1,0.1,0.2,0.1,0.3c0,0.1,0.1,0.2,0.1,0.3
			c0-0.1,0.1-0.3,0.1-0.6L19.8,14.6z"/>
		<path fill="#414042" d="M22.4,17.4h-1.6v-2.8h1.6v0.5h-1v0.6h1v0.5h-1v0.7h1V17.4z"/>
		<path fill="#414042" d="M23.6,16.3v1.1H23v-2.8h0.8c0.4,0,0.7,0.1,0.9,0.2c0.2,0.1,0.3,0.4,0.3,0.6c0,0.2,0,0.3-0.1,0.4
			c-0.1,0.1-0.2,0.2-0.4,0.3c0.4,0.6,0.7,1,0.8,1.2h-0.7l-0.7-1.1L23.6,16.3L23.6,16.3z M23.6,15.8h0.2c0.2,0,0.3,0,0.4-0.1
			c0.1-0.1,0.1-0.2,0.1-0.3c0-0.1,0-0.2-0.1-0.3c-0.1-0.1-0.2-0.1-0.4-0.1h-0.2L23.6,15.8L23.6,15.8z"/>
		<circle fill="#E6A124" cx="16.5" cy="16" r="1.4"/>
	</g>
	<path fill="#E6A124" d="M30,19.5V23c0,0.3-0.1,0.6-0.2,0.9c-0.1,0.3-0.3,0.5-0.5,0.7c-0.2,0.2-0.5,0.4-0.7,0.5
		c-0.3,0.1-0.6,0.2-0.9,0.2H17.2H6.7L30,19.5z"/>
	<path opacity="8.000000e-02" fill="#FFFFFF" enable-background="new    " d="M29.3,7.4C29.7,7.8,30,8.4,30,9v7v7
		c0,0.6-0.3,1.2-0.7,1.6c-0.4,0.4-1,0.7-1.6,0.7H16H4.4c-0.6,0-1.2-0.3-1.6-0.7L29.3,7.4z"/>
	<g>
		<path fill="#F7F5F2" d="M27.6,7.2c1,0,1.9,0.8,1.9,1.9v14c0,1-0.8,1.9-1.9,1.9H4.4c-1,0-1.9-0.8-1.9-1.9V9c0-1,0.8-1.9,1.9-1.9
			H27.6 M27.6,6.7H4.4C3.1,6.7,2,7.7,2,9v14c0,1.3,1,2.3,2.3,2.3h23.3c1.3,0,2.3-1,2.3-2.3V9C30,7.7,28.9,6.7,27.6,6.7L27.6,6.7z"/>
	</g>
</g>
</svg>
