<?xml version="1.0" encoding="utf-8"?>
<!-- Generator: Adobe Illustrator 18.1.1, SVG Export Plug-In . SVG Version: 6.00 Build 0)  -->
<!DOCTYPE svg PUBLIC "-//W3C//DTD SVG 1.1//EN" "http://www.w3.org/Graphics/SVG/1.1/DTD/svg11.dtd">
<svg version="1.1" id="Layer_1" xmlns="http://www.w3.org/2000/svg" xmlns:xlink="http://www.w3.org/1999/xlink" x="0px" y="0px"
	 viewBox="0 0 32 32" enable-background="new 0 0 32 32" xml:space="preserve">
<g>
	<path fill="#5565AF" d="M30,23c0,1.3-1,2.3-2.3,2.3H4.3C3,25.3,2,24.3,2,23V9c0-1.3,1-2.3,2.3-2.3h23.3C29,6.7,30,7.7,30,9V23z"/>
	<path opacity="4.000000e-02" fill="#FFFFFF" enable-background="new    " d="M29.3,7.4C29.7,7.8,30,8.4,30,9v7v7
		c0,0.6-0.3,1.2-0.7,1.6c-0.4,0.4-1,0.7-1.6,0.7H16H4.3c-0.6,0-1.2-0.3-1.6-0.7L29.3,7.4z"/>
	<path fill="#56B1D9" d="M16,6.7"/>
	<g>
		<path fill="#EA564B" d="M16,12.9c-0.9-1-2.1-1.6-3.5-1.6c-2.6,0-4.7,2.1-4.7,4.7c0,2.6,2.1,4.7,4.7,4.7c1.4,0,2.6-0.6,3.5-1.6
			c-0.7-0.8-1.2-1.9-1.2-3.1S15.3,13.7,16,12.9z"/>
		<path fill="#EA564B" d="M16,12.9c-0.7,0.8-1.2,1.9-1.2,3.1s0.4,2.3,1.2,3.1c0.7-0.8,1.2-1.9,1.2-3.1S16.7,13.7,16,12.9z"/>
	</g>
	<path fill="#E9D419" d="M19.5,11.3c-1.4,0-2.6,0.6-3.5,1.6c-0.2,0.2-0.4,0.5-0.5,0.7h1.1c0.2,0.3,0.3,0.6,0.4,0.9h-1.9
		c-0.1,0.3-0.2,0.6-0.2,0.9h2.3c0,0.2,0,0.3,0,0.5c0,0.2,0,0.3,0,0.5h-2.3c0,0.3,0.1,0.6,0.2,0.9h1.9c-0.1,0.3-0.2,0.6-0.4,0.9h-1.1
		c0.2,0.3,0.3,0.5,0.5,0.7c0.9,1,2.1,1.6,3.5,1.6c2.6,0,4.7-2.1,4.7-4.7C24.2,13.4,22.1,11.3,19.5,11.3z"/>
	<g>
		<path fill="#7684B7" d="M27.7,7.1c1,0,1.9,0.8,1.9,1.9v14c0,1-0.8,1.9-1.9,1.9H4.3c-1,0-1.9-0.8-1.9-1.9V9c0-1,0.8-1.9,1.9-1.9
			H27.7 M27.7,6.7H4.3C3,6.7,2,7.7,2,9v14c0,1.3,1,2.3,2.3,2.3h23.3c1.3,0,2.3-1.1,2.3-2.3V9C30,7.7,29,6.7,27.7,6.7L27.7,6.7z"/>
	</g>
</g>
</svg>
