<?xml version="1.0" encoding="utf-8"?>
<!-- Generator: Adobe Illustrator 18.1.1, SVG Export Plug-In . SVG Version: 6.00 Build 0)  -->
<!DOCTYPE svg PUBLIC "-//W3C//DTD SVG 1.1//EN" "http://www.w3.org/Graphics/SVG/1.1/DTD/svg11.dtd">
<svg version="1.1" id="Layer_1" xmlns="http://www.w3.org/2000/svg" xmlns:xlink="http://www.w3.org/1999/xlink" x="0px" y="0px"
	 viewBox="0 0 32 32" enable-background="new 0 0 32 32" xml:space="preserve">
<g>
	<path fill="#F3F4F4" d="M30,23c0,1.3-1,2.3-2.3,2.3H4.4c-1.3,0-2.3-1-2.3-2.3V9c0-1.3,1-2.3,2.3-2.3h23.3c1.3,0,2.3,1,2.3,2.3V23z"
		/>
	<path fill="#5565AF" d="M2.5,11.3V9c0-1.3,1-2.3,2.3-2.3h22.3c1.3,0,2.3,1,2.3,2.3v2.3"/>
	<path fill="#E6A124" d="M29.5,20.7V23c0,1.3-1,1.9-2.3,1.9H4.8c-1.3,0-2.3-0.6-2.3-1.9v-2.3"/>
	<g>
		<path fill="#5565AF" d="M10.1,17.6c0.2-0.5,0.3-0.9,0.4-1l1.6-3.2h1.1l-2.7,5.3H9.3l-0.5-5.3h1.1l0.2,3.2c0,0.1,0,0.3,0,0.5
			C10.1,17.3,10.1,17.5,10.1,17.6L10.1,17.6z"/>
		<path fill="#5565AF" d="M12.8,18.7l1.1-5.3H15l-1.1,5.3H12.8z"/>
		<path fill="#5565AF" d="M18.4,17.1c0,0.5-0.2,0.9-0.5,1.2c-0.4,0.3-0.8,0.4-1.5,0.4c-0.5,0-1-0.1-1.3-0.3v-1
			c0.5,0.3,0.9,0.4,1.3,0.4c0.3,0,0.5-0.1,0.6-0.2c0.2-0.1,0.2-0.2,0.2-0.4c0-0.1,0-0.2,0-0.3c0-0.1-0.1-0.2-0.1-0.2
			c-0.1-0.1-0.2-0.2-0.5-0.4c-0.3-0.2-0.6-0.5-0.7-0.7c-0.1-0.2-0.2-0.5-0.2-0.8c0-0.3,0.1-0.6,0.2-0.8c0.1-0.2,0.4-0.4,0.6-0.6
			c0.3-0.1,0.6-0.2,1-0.2c0.5,0,1,0.1,1.4,0.4l-0.4,0.8c-0.4-0.2-0.7-0.3-1-0.3c-0.2,0-0.4,0.1-0.5,0.2c-0.1,0.1-0.2,0.3-0.2,0.4
			c0,0.1,0,0.3,0.1,0.4c0.1,0.1,0.3,0.3,0.5,0.4c0.3,0.2,0.5,0.4,0.7,0.6C18.3,16.5,18.4,16.8,18.4,17.1z"/>
		<path fill="#5565AF" d="M22,17.4h-1.7l-0.6,1.3h-1.2l2.8-5.3h1.4l0.5,5.3h-1.1L22,17.4z M21.9,16.4l-0.1-1.3c0-0.3,0-0.6,0-0.9
			v-0.1c-0.1,0.3-0.2,0.6-0.4,0.9l-0.7,1.4H21.9z"/>
	</g>
	<path fill="#FFFFFF" d="M16,6.7"/>
	<path opacity="4.000000e-02" fill="#FFFFFF" enable-background="new    " d="M29.3,7.4C29.7,7.8,30,8.4,30,9v7v7
		c0,0.6-0.3,1.2-0.7,1.6s-1,0.7-1.6,0.7H16H4.4c-0.6,0-1.2-0.3-1.6-0.7L29.3,7.4z"/>
	<g>
		<path fill="#F8F8F9" d="M27.6,7.2c1,0,1.9,0.8,1.9,1.9v14c0,1-0.8,1.9-1.9,1.9H4.4c-1,0-1.9-0.8-1.9-1.9V9c0-1,0.8-1.9,1.9-1.9
			H27.6 M27.6,6.7H4.4C3.1,6.7,2,7.7,2,9v14c0,1.3,1,2.3,2.3,2.3h23.3c1.3,0,2.3-1,2.3-2.3V9C30,7.7,28.9,6.7,27.6,6.7L27.6,6.7z"/>
	</g>
</g>
</svg>
