<?xml version="1.0" encoding="utf-8"?>
<!-- Generator: Adobe Illustrator 19.2.1, SVG Export Plug-In . SVG Version: 6.00 Build 0)  -->
<svg version="1.1" id="Layer_1" xmlns="http://www.w3.org/2000/svg" xmlns:xlink="http://www.w3.org/1999/xlink" x="0px" y="0px"
	 viewBox="0 0 200 44.3" style="enable-background:new 0 0 200 44.3;" xml:space="preserve">
<style type="text/css">
	.st0{fill:#FFFFFF;}
</style>
<path class="st0" d="M3.9,20.6c0-0.9-0.6-1.2-1.5-1.2H0v-6.8h7.2c2.8,0,4.3,1.3,4.3,3.5V17c0,0.7-0.2,1.3-0.2,1.3h0.1
	c1.5-2.9,5.2-6.5,10.1-6.5c4.7,0,7.8,2.2,9.1,6.5h0.1c1.7-3.2,5.7-6.5,10.7-6.5c6.5,0,10.2,3.7,10.2,12.1v12.3
	c0,0.9,0.5,1.5,1.4,1.5h2.2v6.5h-7.2c-2.9,0-4.3-1.2-4.3-4.2V25.4c0-3.6-0.6-6.3-4.2-6.3c-3.9,0-6.6,3.3-7.5,7.3
	c-0.4,1.2-0.5,2.5-0.5,4v13.8h-7.9V25.4c0-3.4-0.4-6.3-4.2-6.3c-3.9,0-6.6,3.3-7.6,7.3c-0.3,1.2-0.5,2.5-0.5,4v13.8H3.9V20.6z"/>
<path class="st0" d="M69.9,11.8c9,0,13.9,6.7,13.9,15c0,0.9-0.2,2.9-0.2,2.9H62c0.6,5.4,4.7,8.5,9.4,8.5c5,0,8.8-3.5,8.8-3.5
	l3.3,5.5c0,0-4.8,4.8-12.6,4.8C60.4,45,54,37.4,54,28.4C54,18.7,60.5,11.8,69.9,11.8z M75.8,24.4c-0.1-3.9-2.7-6.4-5.9-6.4
	c-4,0-6.8,2.4-7.7,6.4H75.8z"/>
<path class="st0" d="M86.9,18.7h-4.3v-6.1h4.3V0h7.5v12.6h7.2v6.1h-7.2v12.9c0,5.2,4.2,6,6.3,6c0.9,0,1.6-0.1,1.6-0.1v6.9
	c0,0-1,0.2-2.4,0.2c-4.4,0-13-1.3-13-11.9V18.7z"/>
<path class="st0" d="M104.1,8.2c0-0.9-0.4-1.4-1.3-1.4h-2.3V0h7.3c2.9,0,4.2,1.5,4.2,4.3v11.1c0,1.6-0.2,2.5-0.2,2.5h0.1
	c1.5-2.9,5.3-6.2,10.7-6.2c7,0,10.9,3.7,10.9,12.1v12.3c0,0.9,0.5,1.5,1.4,1.5h2.5v6.5H130c-2.9,0-4-1.2-4-4.2V25.5
	c0-3.8-1.1-6.5-5-6.5c-4.1,0-7.3,2.7-8.5,6.6c-0.4,1.2-0.5,2.6-0.5,4.1v14.5h-7.9V8.2z"/>
<path class="st0" d="M178.7,37.5c5,0,9.3-4,9.3-9.9c0-5.9-4.2-9.9-9.3-9.9c-5.1,0-9.3,4-9.3,9.9l0,0c0,9.7-7.6,16.6-17.2,16.6
	c-9.5,0-17.1-6.8-17.1-16.5c0-9.7,7.6-16.5,17.1-16.5h0c4.5,0,8.4,1.3,11.4,3.9c-1.6,2-2.4,3.4-3.6,7.2c-1.7-2.8-5-4.5-8.3-4.5
	l-0.1,0c-5,0-8.8,4-8.8,9.9c0,5.9,4.2,9.9,9.3,9.9c5.1,0,9.3-4,9.3-9.9l0,0c0-9.7,7.6-16.6,17.2-16.6c3.6,0,7,1,9.8,2.7l0.1,0V8.2
	c0-0.9-0.6-1.4-1.5-1.4h-2.5V0h7.4c2.9,0,4.1,1.5,4.1,4.4v31.8c0,0.9,0.6,1.5,1.5,1.5h2.5v6.5h-7.3c-2.8,0-3.9-1.2-3.9-3.1l0,0
	c-2.8,2-6.4,3.1-10.2,3.1l0,0c-4.5,0-8.4-1.3-11.4-4c1.6-2,2.4-3.4,3.6-7.2C172.4,35.8,175.4,37.5,178.7,37.5L178.7,37.5z"/>
</svg>
