<?xml version="1.0" encoding="utf-8"?>
<!-- Generator: Adobe Illustrator 17.1.0, SVG Export Plug-In . SVG Version: 6.00 Build 0)  -->
<!DOCTYPE svg PUBLIC "-//W3C//DTD SVG 1.1//EN" "http://www.w3.org/Graphics/SVG/1.1/DTD/svg11.dtd">
<svg version="1.1" id="Layer_1" xmlns="http://www.w3.org/2000/svg" xmlns:xlink="http://www.w3.org/1999/xlink" x="0px" y="0px"
	 viewBox="0 0 326.6 391.9" enable-background="new 0 0 326.6 391.9" xml:space="preserve">
<g>
	<path fill="#BACAD0" d="M326.6,138.8v228.6c0,6.8-2.4,12.6-7.1,17.3c-4.8,4.8-10.5,7.1-17.3,7.1H24.5c-6.8,0-12.6-2.4-17.3-7.1
		C2.4,380,0,374.2,0,367.4V24.5c0-6.8,2.4-12.6,7.1-17.3C11.9,2.4,17.7,0,24.5,0h163.3c6.8,0,14.3,1.7,22.5,5.1
		c8.2,3.4,14.6,7.5,19.4,12.2l79.6,79.6c4.8,4.8,8.8,11.2,12.2,19.4C324.9,124.5,326.6,132,326.6,138.8z M32.7,359.2h261.3V163.3
		H187.8c-6.8,0-12.6-2.4-17.3-7.1c-4.8-4.8-7.1-10.5-7.1-17.3V32.7H32.7V359.2z M195.9,130.6h95.9c-1.7-4.9-3.6-8.4-5.6-10.5
		l-79.9-79.9c-2-2-5.5-3.9-10.5-5.6V130.6z"/>
</g>
</svg>
