<?xml version="1.0" encoding="utf-8"?>
<!-- Generator: Adobe Illustrator 17.1.0, SVG Export Plug-In . SVG Version: 6.00 Build 0)  -->
<!DOCTYPE svg PUBLIC "-//W3C//DTD SVG 1.1//EN" "http://www.w3.org/Graphics/SVG/1.1/DTD/svg11.dtd">
<svg version="1.1" id="Layer_1" xmlns="http://www.w3.org/2000/svg" xmlns:xlink="http://www.w3.org/1999/xlink" x="0px" y="0px"
	 viewBox="10.6 0 471.4 500.1" enable-background="new 10.6 0 471.4 500.1" xml:space="preserve">
<g>
	<path fill="#BACAD0" d="M482,477.6c0,30-471.4,30-471.4,0c0-13.2,0.4-26.1,1.1-38.7c0.8-12.6,2.4-26.2,4.7-40.8
		c2.4-14.6,5.3-28.2,8.9-40.7c3.6-12.5,8.3-24.6,14.4-36.5c6-11.8,12.9-21.9,20.8-30.3c7.8-8.3,17.3-15,28.6-20s23.7-7.5,37.3-7.5
		c1.9,0,6.7,2.6,14,8c7.4,5.4,15.7,11.4,25,17.9c9.3,6.7,21.4,12.6,36.2,17.9c14.8,5.4,29.7,8,44.7,8c15,0,29.8-2.6,44.7-8
		c14.8-5.4,26.9-11.4,36.2-17.9c9.3-6.7,17.6-12.6,25-17.9c7.4-5.4,12.1-8,14-8c13.6,0,26.1,2.5,37.3,7.5c11.2,5,20.8,11.7,28.6,20
		c7.8,8.3,14.7,18.5,20.8,30.3c6,11.8,10.8,24,14.4,36.5c3.6,12.5,6.5,25.9,8.9,40.7c2.4,14.6,3.9,28.2,4.7,40.8
		C481.6,451.5,482,464.4,482,477.6z M337.1,42c25.1,28,37.6,61.9,37.6,101.6s-12.5,73.5-37.6,101.6s-55.4,42-90.9,42
		s-65.8-14-90.9-42s-37.6-61.9-37.6-101.6S130.2,70.1,155.3,42s55.4-42,90.9-42S312,14,337.1,42z"/>
</g>
</svg>
