<?xml version="1.0" encoding="utf-8"?>
<!-- Generator: Adobe Illustrator 17.1.0, SVG Export Plug-In . SVG Version: 6.00 Build 0)  -->
<!DOCTYPE svg PUBLIC "-//W3C//DTD SVG 1.1//EN" "http://www.w3.org/Graphics/SVG/1.1/DTD/svg11.dtd">
<svg version="1.1" id="Layer_1" xmlns="http://www.w3.org/2000/svg" xmlns:xlink="http://www.w3.org/1999/xlink" x="0px" y="0px"
	 viewBox="1 2.8 497.1 397.6" enable-background="new 1 2.8 497.1 397.6" xml:space="preserve">
<g>
	<path fill="#BACAD0" d="M498.1,44.2V359c0,11.3-4.1,21.1-12.1,29.3c-8.2,8.2-17.8,12.1-29.3,12.1H42.4c-11.3,0-21.1-4.1-29.3-12.1
		C5,380.1,1,370.3,1,359V44.2c0-11.3,4.1-21.1,12.1-29.3C21.3,6.8,31.1,2.8,42.4,2.8h414.2c11.3,0,21.1,4.1,29.3,12.1
		C494,23.1,498.1,32.9,498.1,44.2z M456.7,36H42.4c-2.2,0-4.2,0.8-5.8,2.5c-1.6,1.6-2.5,3.6-2.5,5.8v314.8c0,2.2,0.8,4.2,2.5,5.8
		c1.6,1.6,3.6,2.5,5.8,2.5h414.2c2.2,0,4.2-0.8,5.8-2.5c1.6-1.6,2.5-3.6,2.5-5.8V44.2c0-2.2-0.8-4.2-2.5-5.8
		C460.8,36.8,459,36,456.7,36z M152.2,83.6c9.6,9.6,14.5,21.4,14.5,35.2s-4.9,25.6-14.5,35.2s-21.4,14.5-35.2,14.5
		s-25.6-4.9-35.2-14.5s-14.5-21.4-14.5-35.2s4.9-25.6,14.5-35.2s21.4-14.5,35.2-14.5S142.6,74,152.2,83.6z M431.8,218.2v116H67.3
		v-49.7l82.8-82.8l41.4,41.4L324,110.6L431.8,218.2z"/>
</g>
</svg>
