<?xml version="1.0" encoding="utf-8"?>
<!-- Generator: Adobe Illustrator 18.1.1, SVG Export Plug-In . SVG Version: 6.00 Build 0)  -->
<!DOCTYPE svg PUBLIC "-//W3C//DTD SVG 1.1//EN" "http://www.w3.org/Graphics/SVG/1.1/DTD/svg11.dtd">
<svg version="1.1" xmlns="http://www.w3.org/2000/svg" xmlns:xlink="http://www.w3.org/1999/xlink" x="0px" y="0px"
	 viewBox="0 0 327.3 286" enable-background="new 0 0 327.3 286" xml:space="preserve">
<g id="Layer_1" display="none">
	<g id="zAWB0q.tif" display="inline">
		
			<image overflow="visible" width="1300" height="700" id="Layer_1_1_" xlink:href="EDC86F13C4124D6E.png"  transform="matrix(0.4 0 0 0.4 -89.6667 -40)">
		</image>
	</g>
</g>
<g id="Layer_2">
	<path fill="#EEF5F7" d="M20.2,135.6c1.6,2.1,3.3,5.5,7.6,10.4c0.4,0.5,0.9,0.9,1.4,1.4l0.3,1.2c0.1,4.2,0,7.5,0.4,11.2l0,0
		c0,0,0,0,0,0c0.3,3,0.4,4.8,1.5,8.9c2.5,9.1,7,14.9,7,14.9c2.8,4.8,13.4,10.6,25.8,7.5c12.3-3.2,14.8-13.8,14.8-13.8
		c0.4-3,0.8-5.2,0.7-7.7l-3.5-2.3l32.6,32.3c-5.1,2.4-19.6,12.3-18.9,25.1c0.9,15.2,8.5,30.8,21.3,43c0,0,17,10.7,35.2-7.8
		c5.2-5.3,7.8-10.6,8.1-16.5l-0.9-0.9c0,0,16,16.5,17.6,17.9c1.6,1.4,4.3,0.1,4.3,0.1l60-28.7l69.1-34.1c0,0,1.5-0.2,1.8-3.6
		c0.1-1.2,0.1-4.9,0.5-10c8.5-6.7,12.1-19.8,6.6-31.6c-6-12.8-19.1-19.6-30.1-17.2c-0.2-3.4-0.2-5.2-0.5-8.5
		c-1-15.5-7.3-18.6-7.3-18.6l-23.5-17.1l0,0c-0.3-0.2-0.5-0.4-0.7-0.6c-0.8-5-4.6-9.8-10.4-14l-1.2-4.4c-0.3-1.1-0.7-2.5-1.2-4.3
		l0,0l0,0c-0.3-1.1-0.7-2.3-1-3.5c-1.8-6-4.8-8.1-4.8-8.1s-3.5-3.9-18.6-13.8c-15.1-9.9-31.9-9.9-46.2-9.5
		c-14.3,0.4-54,4.9-85.2,18.6C51.5,65.3,38.6,81.3,38.6,81.3s-13.9,14.6-18.7,30.5c-4.8,15.8-1.3,21.6-1.3,21.6"/>
	<path fill="#34495E" d="M13.3,130.9c1.7,2.1,3.6,5.6,8.3,10.6c0.5,0.5,1,0.9,1.5,1.4l0.4,1.2c0.2,4.3,0.3,7.8,0.8,11.6l0,0
		c0,0,0,0,0,0c0.4,3.1,0.6,5,1.8,9.2c2.9,9.4,7.7,15.2,7.7,15.2c3.1,4.9,14.3,10.6,27,6.9c12.7-3.7,15-14.7,15-14.7
		c0.3-3.1,0.6-5.4,0.5-8l-3.7-2.2l35,32.4c-5.2,2.7-20,13.3-18.8,26.6c1.4,15.8,9.8,31.6,23.5,43.9c0,0,18,10.5,36.3-9.2
		c5.2-5.6,7.8-11.2,7.9-17.4l-1-0.9c0,0,17.2,16.5,18.9,17.9s4.5,0,4.5,0l61.4-31.6l70.7-37.5c0,0,1.5-0.3,1.8-3.8
		c0.1-1.2-0.1-5,0.2-10.3c8.7-7.3,11.9-20.9,5.8-33c-6.6-13.1-20.4-19.6-31.8-16.9c-0.3-3.5-0.4-5.3-0.8-8.8c-1.5-16-8.2-19-8.2-19
		l-24.9-16.9l0,0c-0.3-0.2-0.6-0.4-0.8-0.6c-1-5.2-5.1-10-11.3-14.2l-1.4-4.5c-0.3-1.1-0.8-2.6-1.4-4.4l0,0l0,0
		c-0.4-1.1-0.8-2.3-1.2-3.6c-2-6.1-5.3-8.2-5.3-8.2s-3.8-3.9-19.8-13.7c-16.1-9.7-33.5-9.2-48.3-8.4c-14.9,0.9-56,6.8-88,22
		C43.6,57.1,30.7,74.1,30.7,74.1s-14,15.6-18.4,32.2c-4.4,16.6-0.7,22.4-0.7,22.4"/>
	<g>
		<path fill="#FFFFFF" d="M314.8,139c-6.4-12.7-19.9-18.5-31.1-14c-0.3-3.4-1-7.2-1.3-10.5c-1.5-15.6-8-18.5-8-18.5l-24.2-16.5l0,0
			c-0.3-0.2-0.5-0.4-0.7-0.5c-1-5-4.9-9.7-11-13.8l-1.4-4.4c-0.3-1.1-0.8-2.5-1.4-4.3l0,0l0,0c-0.3-1.1-0.7-2.3-1.2-3.5
			c-2-6-5.1-8-5.1-8s-3.7-3.8-19.3-13.3c-15.6-9.5-32.5-9-47-8.1c-14.4,0.8-54.5,6.6-85.5,21.4c-31,14.8-45.2,31.2-45.2,31.2
			s-13.1,15.1-17.4,31.2c-4.3,16.1-0.7,21.8-0.7,21.8s0.5,0.8,1.7,2.2v0l0,0c1.7,2.1,4.6,5.6,9.1,10.4c0.5,0.5,0.9,0.9,1.4,1.3
			l-0.1-0.1c0.2,4.2,0.3,7.6,0.8,11.3l0,0c0,0,0,0,0,0c0.4,3,1.1,6.2,2.3,10.2c2.8,9.1,7.5,14.8,7.5,14.8c3,4.8,10.2,8.7,22.6,5.1
			c12.4-3.6,14.3-14.5,14.3-14.5c0.3-3,0.6-6.3,0.4-8.8l0,0l35.9,33.5c-5.1,2.6-20.9,11.6-19.8,24.4c1.4,15.3,8.6,31.8,21.9,43.7
			c0,0,18.6,10.7,36.2-10c4.8-5.7,6.6-11.9,6.7-17.9l0,0.1c0,0,16.7,16.1,18.3,17.4c1.6,1.4,4.4,0,4.4,0l59.7-30.8l70-36.3
			c0,0,1.5-0.2,1.7-3.7c0.1-1.2,0.3-5.5,0.6-10.6C318.5,164,320.8,150.6,314.8,139z"/>
		<ellipse transform="matrix(0.9939 -0.11 0.11 0.9939 -16.943 28.8124)" fill="#D81F47" cx="252.7" cy="168" rx="5.4" ry="7.1"/>
		<path fill="#D81F47" d="M26.9,142.9c0,0,8.1,4.6,14.5,4.8c6.4,0.2,23.6-2.5,34.3-9.8c10.7-7.2,16.7-13.7,16.7-13.7V86.1
			c0,0,1.1-4.8,6.7-8.3c0,0-0.2-7.3,4.2-9c4.4-1.7,12-1.6,11.8-6.6s-0.3-7.3,2.4-7.5c2.7-0.2,13-2.8,13-2.8s6.3,0.9,6.4,4.6l1.6,4.1
			l20-5c0,0,4.5,0.3,3.4-8c0,0,1.6-4.3,5.2-4.5c3.1-0.2,9.3-1.8,9.3-1.8s6.5-0.8,5.7,4l1.4,4.5l7.3-1.1l6.5,3l10.4-0.5
			c0,0,3.7-1.1,7.8,1.2c4.1,2.3,6.9,5,6.9,5l10.4,4.4l5.7,3.6l-4.4-14c0,0-4.1-8.2-14.1-13.3S204,25.7,186.6,23.9
			c-18.2-1.9-34.2,0.2-46.5,2.7s-28,6.1-28,6.1s-23.3,5.8-46.1,18.2S33.2,75.6,33.2,75.6s-15.8,17.1-19.3,37.2l-0.9,11
			c0,0,0.9,4.1,1.9,5.7C15.9,131.1,26.9,142.9,26.9,142.9"/>
		<path fill="#3EA4EF" d="M26.5,142.4v9.8c0,0,2.3,13.5,6.2,20.3c3.8,6.8,6,10.8,13.1,12.4s16-0.7,21.2-4.4s7.3-9.2,7.3-12.1
			s-0.6-11.4-0.6-11.4s-2.3-11.3-6.4-15c0,0-9.6,3.9-13.1,4c-3.5,0.1-12.9,2.3-17.9,0.8S26.5,142.4,26.5,142.4z"/>
		
			<ellipse transform="matrix(0.9607 0.2775 -0.2775 0.9607 53.1849 -53.6355)" fill="#3EA4EF" cx="216.1" cy="161.1" rx="5.9" ry="7.9"/>
		
			<ellipse transform="matrix(0.9607 0.2775 -0.2775 0.9607 49.1944 -69.5581)" fill="#3EA4EF" cx="270.3" cy="139" rx="5.9" ry="7.9"/>
		<path fill="#3EA4EF" d="M115.5,193.2c0,0-5.9,0.8-11.4,5.6c-5.5,4.9-6.5,4.9-9.7,9.2s-3.7,11.2-2.7,16.2s4.8,17.9,9.1,23.9
			c4.3,6,10,14.2,14.3,15.5s19.4,2.9,28.5-6.1c9.1-9,12.6-18.1,11.2-26.1c-1.5-8-7.2-24.3-15.5-31.5
			C130.9,192.7,125.9,191.9,115.5,193.2z"/>
		<path fill="#3EA4EF" d="M283.7,125c0,0,12.5-4.5,22,2.9c9.5,7.3,12.6,16.1,12.8,22.6c0.2,6.5-2,16.5-7.9,19.9l1-23l-0.9-1.3
			l-26.4-13.7L283.7,125z"/>
		
			<ellipse transform="matrix(0.9609 0.277 -0.277 0.9609 65.6199 -50.0108)" fill="#D81F47" cx="209.8" cy="207.3" rx="7" ry="8.5"/>
		
			<ellipse transform="matrix(0.9609 0.277 -0.277 0.9609 58.6453 -72.7551)" fill="#D81F47" cx="286.9" cy="171.2" rx="7" ry="8.5"/>
		<g>
			<path fill="#34495E" d="M29.9,146.8c-2.2,0.6-2.1,8,0.2,16.6c2.4,8.6,6.1,15,8.3,14.4c2.2-0.6,2.1-8-0.2-16.6
				C35.8,152.6,32.1,146.2,29.9,146.8z M37,161.5c0.3,1.1,0.6,2.1,0.8,3.1c-1.4,0.4-2.9-0.8-3.4-2.5c-0.5-1.8,0.2-3.5,1.6-4
				C36.3,159.3,36.7,160.4,37,161.5z M37.8,176.5c-1.9,0.5-5-6-7-13.3c-2-7.3-2.7-14.5-0.8-15c1.6-0.4,3.9,3.9,5.8,9.5
				c-1.6,0.5-2.4,2.5-1.8,4.5c0.6,2,2.3,3.3,3.9,2.9C39.2,171,39.4,176.1,37.8,176.5z"/>
			<path fill="#34495E" d="M95.4,218.7c-2.7,1.2-1.2,10.7,3.5,21.1c4.6,10.5,10.6,18,13.3,16.8c2.7-1.2,1.2-10.7-3.5-21.1
				C104.1,225,98.1,217.5,95.4,218.7z M111.2,255.1c-2.3,1-7.5-6.7-11.5-15.6c-3.9-8.9-6.2-18-3.9-19c1.9-0.8,5.8,4.3,9.3,11.1
				c-1.9,0.9-2.6,3.6-1.5,6.1c1.1,2.4,3.5,3.7,5.5,2.9C111.8,247.8,113.1,254.3,111.2,255.1z M104,237.4c-1-2.2-0.4-4.6,1.3-5.4
				c0.7,1.3,1.3,2.7,1.9,4.1c0.6,1.3,1.1,2.6,1.6,3.9C107.1,240.7,105,239.6,104,237.4z"/>
			<path fill="#34495E" d="M214.5,141.2c-7.6-0.7-14.5,6.4-15.4,15.9c-0.1,0.7-0.1,1.3-0.1,2c0,1.4,0.1,2.8,0.4,4.1
				c1.3,6.7,5.9,11.8,11.9,12.4c7.6,0.7,14.5-6.4,15.4-15.9S222.2,141.9,214.5,141.2z M214.5,142.4
				C214.4,142.4,214.4,142.4,214.5,142.4C214.4,142.4,214.4,142.4,214.5,142.4C214.4,142.4,214.5,142.4,214.5,142.4z M200.8,164.6
				c-0.7-2.3-1-4.8-0.7-7.4c0-0.4,0.1-0.8,0.2-1.2c0.1-0.4,0.2-0.8,0.3-1.3c2.1-7.8,8.8-12.7,15-11.1c6.2,1.7,9.6,9.3,7.6,17.1
				s-8.8,12.7-15,11.1C204.7,170.9,202.1,168.2,200.8,164.6z M225.8,159.6c-0.8,8.8-7.2,15.5-14.3,14.8c-2.2-0.2-4.3-1.1-6-2.5
				c0.7,0.4,1.5,0.7,2.4,1c6.7,1.8,13.9-3.6,16.1-11.9c2.2-8.3-1.4-16.5-8.1-18.3c-0.3-0.1-0.7-0.2-1-0.2
				C221.7,143.3,226.6,150.9,225.8,159.6z"/>
			<path fill="#34495E" d="M212.9,168.8c3.1,1.2,6.9-1.1,8.5-5.2c1.6-4.1,0.4-8.4-2.7-9.7c-3.1-1.2-6.9,1.1-8.5,5.2
				C208.6,163.2,209.8,167.5,212.9,168.8z M210.6,159.2c1.5-3.8,5-6,7.9-4.9c2.9,1.2,4,5.2,2.5,9c-1.5,3.8-5,6-7.9,4.9
				C210.2,167.1,209.1,163.1,210.6,159.2z"/>
			<path fill="#34495E" d="M268.8,119.1c-7.6-0.7-14.5,6.4-15.4,15.9c-0.1,0.7-0.1,1.3-0.1,2c0,1.4,0.1,2.8,0.4,4.1
				c1.4,6.7,5.9,11.8,11.9,12.4c7.6,0.7,14.5-6.4,15.4-15.9S276.4,119.9,268.8,119.1z M268.7,120.3
				C268.7,120.3,268.7,120.3,268.7,120.3C268.7,120.3,268.7,120.3,268.7,120.3C268.7,120.3,268.7,120.3,268.7,120.3z M255.1,142.5
				c-0.7-2.3-1-4.8-0.7-7.4c0-0.4,0.1-0.8,0.2-1.2c0.1-0.4,0.2-0.8,0.3-1.3c2.1-7.8,8.8-12.7,15-11.1c6.2,1.7,9.6,9.3,7.6,17.1
				s-8.8,12.7-15,11.1C258.9,148.8,256.4,146.1,255.1,142.5z M280.1,137.5c-0.8,8.8-7.2,15.5-14.3,14.8c-2.2-0.2-4.3-1.1-6-2.5
				c0.7,0.4,1.5,0.7,2.4,1c6.7,1.8,13.9-3.6,16.1-11.9c2.2-8.3-1.4-16.5-8.1-18.3c-0.3-0.1-0.7-0.2-1-0.2
				C276,121.2,280.9,128.8,280.1,137.5z"/>
			<path fill="#34495E" d="M267.2,146.7c3.1,1.2,6.9-1.1,8.5-5.2c1.6-4.1,0.4-8.4-2.7-9.7c-3.1-1.2-6.9,1.1-8.5,5.2
				C262.9,141.1,264.1,145.5,267.2,146.7z M264.8,137.2c1.5-3.8,5-6,7.9-4.9c2.9,1.2,4,5.2,2.5,9c-1.5,3.8-5,6-7.9,4.9
				C264.5,145,263.4,141,264.8,137.2z"/>
			<path fill="#34495E" d="M253.8,175.5c2.9-0.5,4.7-4.2,4-8.2c-0.7-4-3.6-6.9-6.6-6.4c-2.9,0.5-4.7,4.2-4,8.2
				C247.9,173.2,250.8,176,253.8,175.5z M255.3,163.3c0.9,0.9,1.5,2.2,1.9,3.8c-0.1,0.3-0.3,0.6-0.5,0.7c-0.7,0.3-1.7-0.4-2.3-1.6
				s-0.5-2.5,0.2-2.8C254.8,163.2,255,163.2,255.3,163.3z M251.4,161.7c1.3-0.2,2.6,0.3,3.6,1.3c-0.2,0-0.4,0-0.6,0.1
				c-0.8,0.4-0.9,1.8-0.2,3.1c0.7,1.4,1.8,2.2,2.6,1.8c0.2-0.1,0.4-0.3,0.5-0.5c0.6,3.6-1,6.9-3.6,7.3c-2.6,0.5-5.3-2.1-5.9-5.7
				C247.1,165.4,248.7,162.1,251.4,161.7z"/>
			<path fill="#34495E" d="M256.7,171.2c0.5-0.8,0.4-1.8-0.2-2.1c-0.6-0.4-1.5,0-2,0.8c-0.5,0.8-0.4,1.8,0.2,2.1
				S256.2,172.1,256.7,171.2z M254.6,170c0.4-0.7,1.2-1.1,1.8-0.7c0.5,0.3,0.6,1.2,0.2,1.9c-0.4,0.7-1.2,1.1-1.8,0.7
				S254.2,170.7,254.6,170z"/>
			<path fill="#34495E" d="M182.2,138.9c-4.3,1.2-7.3-1.2-7.3-1.2L95.4,88.1c0,0,74.5,47.7,79.4,50.7c1.3,0.8,2.5,1.3,3.4,1.5
				l9.1,47l-6.8-46.8c1.2-0.2,1.8-0.7,1.8-0.7l34.5-13.2C216.7,126.6,186.6,137.6,182.2,138.9z"/>
			<path fill="#34495E" d="M315.4,138.9c-6.5-12.8-20.3-18.9-31.6-14.3c-0.3-3.4-0.6-6.9-0.9-10.3c-1.5-15.6-8-18.5-8-18.5
				l-25.1-17.3c-1.1-4.9-5-9.6-11-13.5l-1.4-4.4c-0.3-1.1-0.8-2.6-1.4-4.3l0,0l0,0c-0.3-1.1-0.7-2.3-1.2-3.5c-2-6-5.2-8-5.2-8
				s-3.7-3.8-19.3-13.3c-15.7-9.5-32.7-9-47.2-8.2s-54.7,6.7-85.8,21.5C46.2,59.5,32.1,76,32.1,76s-13.2,15.2-17.5,31.3
				c-4.3,16.2-0.7,21.8-0.7,21.8s3.2,4.5,10.8,12.7c0.5,0.5,0.9,0.9,1.4,1.3L26,143c0.4,7.6,0.3,12.5,3.1,21.6s7.5,14.8,7.5,14.8
				c3,4.8,10.6,8.6,23,5c12.4-3.6,14.6-14.4,14.6-14.4c0.3-3,0.3-5.8,0.1-8.3l0,0l35.4,32.8c-5.1,2.6-20.8,11.8-19.6,24.7
				c1.4,15.4,8.6,31.9,22,43.9c0,0,18.6,10.8,36.4-10c4.9-5.7,6.7-11.9,6.7-17.9l0,0.1c0,0,16.8,16.1,18.4,17.5s4.4,0,4.4,0l60-30.9
				l70.2-36.5c0,0,1.5-0.2,1.8-3.7c0.1-1.2,0.3-5.5,0.6-10.7C319.1,164.1,321.4,150.7,315.4,138.9z M274.1,96.5
				c7.2,4.8,8,17.9,8,17.9L285,149c2.1,1.5,1.1,1.8,1.1,1.8l-25.6,12.1l0.3,0.8c0,0,25.2-11.7,26.3-12.6s-1.4-2.1-1.4-2.1
				s-0.5-6.9-1.2-15.8l23.8,12.1c0,0,0.6,0.3,1.2,0.7l0,0h0c0.3,0.2,0.5,0.4,0.8,0.6c0.5,0.8-0.8,1.2-0.8,1.2l-47.6,21.5
				c-0.2-6.5-3.5-11.5-8.4-13c-6.9-2.1-19.1-1.5-22.8,20.3c0,0-26.4,12.3-34.9,15.2c-8.5,2.9-15.4-2.7-15.4-2.7s-11.8,1.6-18.6-1.9
				c-5.3-2.7-2.9-6.7-1.6-8.4l0.1,0.1l0.6-0.9l-68.1-38c0,0-2.7-1.2-3-3c-0.3-1.9,1.3-2.7,2.2-2.9c0,0.4,0,1,0,1.8
				c-0.1,1.4,0.8,1.9,0.8,1.9l44,23.2c0,0-42.5-22.9-43.5-23.4s-0.8-1.7-0.8-1.7v-2.3l0.3-46.5c0,0-0.5-4.8,6.1-8.5
				c0.9-0.6,0.7-0.6,0.7-0.6c-0.6-8.2,4.5-8.8,4.5-8.8s4.8-1.5,6.9-1.9s4.8-1.9,4.3-6.7s2.7-5.3,2.7-5.3s6.1-1.6,12.2-2.9
				s7.7,7.7,7.7,7.7l0.2,0.8c0,0,17-3.6,20.8-4.5c3.8-0.9,3.3-2.1,3.8-6.6c0.4-4.5,1.2-4.4,2.5-5.4s11.5-2.7,13.2-2.6
				c1.8,0.1,3.3,0.4,4.1,5c0.8,4.6,1.7,3.4,1.7,3.4c5.3-1.5,7.7-0.6,7.7-0.6l4.7,2.3c2.2,1.3,9.6,0.1,11.8-0.2s4.4,0.1,4.4,0.1
				c4.6,1.3,7.8,4.4,8.9,5.5c-8.4-2.6-18.2-4.2-28.6-4.6c-25.3-1-47.1,5.6-55.6,15.8l0,0c0,0-21.7,4.3-26.1,8s-4.5,6.7,3.5,12
				s60.2,37.8,60.2,37.8s5.4,4.8,18.3,0s70.8-23.8,70.8-23.8s6.7-1.8-0.3-7.1c-6-4.6-12-9.8-13.4-11l0-2.3c0-0.7,0-1.4-0.1-2.2
				C253.7,82.2,267.9,92.3,274.1,96.5z M169.6,205.8l-88.9-70.9c7.4-5.4,11.2-10.5,11.2-10.5s-0.4,0.5-1.1,1.3
				c0.4-0.4,0.7-0.9,1.1-1.3c0,5.1,0,8.6,0,8.6s-2.8,0.5-2.8,3.3c0,0-0.4,1.8,3.6,4.1l66.6,37.7c-1.4,1.3-5.6,6.2,1.5,10
				c8.4,4.5,19.5,1.8,19.5,1.8c6.9,5.5,16.2,2.6,16.2,2.6l34.8-15.2c0.9,0.8,2.7,2.2,6,3c-6.8,2.9-59.5,25.3-62.6,26.5
				C171.4,208.1,169.6,205.8,169.6,205.8z M232.1,176.1c3.4-20.4,14.8-21,21.3-19s10,10.4,6.6,20.3c-3.4,9.9-13.6,11.7-17,9.6
				c-3.4-2.1-4-7.2-4-7.2C233.6,178.6,232.1,176.1,232.1,176.1z M133.3,77.2c0,0.1,0,0.2,0,0.4h0l0.1,4c0,0.3-0.1,0.5-0.1,0.8
				c0,0.8,0,1.5,0.1,2.3l0,0.1l0,0c2.1,14,26.7,25.8,57.2,27c32,1.2,58.4-9.7,59.4-24.5l0,0l0-0.1c0-0.1,0-0.2,0-0.2
				c0-0.4,0-0.7,0-1l0-0.9l13,10.7c0,0,5.2,4.2,0.4,5.7S193,124.9,193,124.9s-11.1,4.8-18,0.2s-59.9-37.6-59.9-37.6
				c-11.6-7.3-2-11.3-2-11.3c2.8-1.2,18.6-5.7,23.1-6.9C134.4,71.8,133.4,74.4,133.3,77.2z M135.6,85.4
				c6.9,11.3,28.8,20.2,55.1,21.2c27,1,50-6.6,57.2-17.8c-2.7,13.5-27.4,23.2-57.1,22C161.6,109.7,138.1,98.6,135.6,85.4z M248,81.7
				c-0.6,14.4-26.2,25.2-57.4,24c-31.1-1.2-55.9-13.9-55.3-28.3c0.6-14.4,26.2-25.2,57.4-24C223.8,54.6,248.6,67.2,248,81.7z
				 M25.7,140.8c-7.6-8-10.7-12.5-10.7-12.5s-3.6-5.6,0.7-21.5C19.9,91,32.9,76,32.9,76s14-16.2,45-30.8
				c30.9-14.6,70.7-20.3,85.1-21.1c14.4-0.8,31.2-1.3,46.8,8c15.5,9.3,19.2,13.1,19.2,13.1s2.8,2.1,5.1,7.9c0.4,1.1,0.8,2,1.1,2.8h0
				l2.7,8.4c-4.1-2.6-9-4.8-14.7-6.7c-6.1-5.5-10.3-6.7-10.3-6.7c-2.2-1.1-9.2,0.2-12.4,0.4s-3.4-0.3-3.4-0.3l-4.8-2.5
				c-2.2-1.3-8,0.1-8.6,0.2s-1.4-5.5-1.4-5.5c-1.5-4.1-8.7-2.2-13.9-1.2c-4,0.8-7,2.3-6.8,7.5c0.2,5.8-3,5.7-3,5.7l-20.3,4.3
				c-1.2-9.8-8.4-8.2-8.4-8.2s-9.9,2.2-12.1,2.7s-3.6,0.8-3.4,6.6s-4.8,5.8-10.8,7.4s-4.9,9.7-4.9,9.7s-6.9,2.8-6.9,9.1
				c0,4.3,0,24.4,0,36.7c0,0-11.4,13.6-28.2,19.8c-4.6,1.6-9.7,2.7-15.3,3.3C48.3,146.5,33.3,148.8,25.7,140.8z M73.6,170.1
				c-2.5,11-14.2,14-14.2,14c-16.8,4.8-22.5-4.8-22.5-4.8c-11.5-14.8-10.4-35.8-10.4-35.8l-0.2-0.1c8,6.4,21.2,4.3,21.2,4.3
				c2.5-0.2,4.9-0.6,7.3-1.1l0,0c0,0,0.1,0,0.4-0.1c4.6-1,8.7-2.4,12.5-4C75.8,153.3,73.6,170.1,73.6,170.1z M147.5,252.7
				c-17,19-34.6,9.5-34.6,9.5S94,247.1,91.2,219.4c0,0-2.2-12.4,20.2-24.8c0,0,18.8-6,30.8,9.9C142.2,204.6,164.5,233.7,147.5,252.7
				z M308.3,184.6l-70.2,36.3c0,0-57.3,29.4-60.2,30.6s-3.1,0-3.1,0l-19.4-17.6l0,0.7c-0.2-15.8-12-30.1-12-30.1s-9.9-17.4-32-10.8
				l-37.1-34c-1.2-11.9-6.2-17.5-6.2-17.5h0c4.5-2,8.4-4.3,11.7-6.6l0,0c0,0,84.5,67.6,88.5,71c0.5,0.4,0.9,0.7,1.4,1l0,0
				c0,0,0,0,0,0c0,0,0.1,0,0.1,0.1c0.4,0.3,1.6,1.6,1.9,8c0.3,7.5,2.4,28.9,2.4,28.9l-1.7-32c0,0-0.9-3.1,1.7-4.1
				c0.9-0.2,1.5-0.5,1.5-0.5l62.7-26.7c0.3,1.6,1.4,5.2,4.1,6.9c3.7,2.2,14.6,0.4,18.2-10.2c0.9-2.6,1.4-5.2,1.4-7.5
				c4.6-2.1,45.8-21,48.1-22c0.5-0.2,0.8-0.4,1.1-0.5c0,0,0,0.1,0,0.1c0.3,2-1.9,34-1.9,34S309.3,183.3,308.3,184.6z M310.7,169.7
				c0.5-9.7,1-21.5,1-21.5s0.7-1.8-3.4-3.8l-23.8-12c-0.2-2.1-0.4-4.4-0.6-6.7c10.9-4.6,24.4,1.2,30.7,13.6
				C320.1,150.3,318.2,162.7,310.7,169.7z"/>
			<path fill="#34495E" d="M193,63.1c-3.2,0-5.8,1.3-5.8,3s2.6,3,5.8,3s5.8-1.3,5.8-3S196.2,63.1,193,63.1z M193,68.6
				c-2.7,0-5-1.2-5-2.6c0-1.4,2.2-2.6,5-2.6s5,1.2,5,2.6C197.9,67.5,195.7,68.6,193,68.6z"/>
			<path fill="#34495E" d="M192.5,55.8c-7.6-0.4-14.6,0.5-19.8,2.3c-1.8-0.7-4-1.1-6.5-1.1c-5.6,0-10.2,2-10.2,4.5
				c0,2.1,3.2,3.9,7.6,4.4c0,0.1,0,0.2,0,0.3l-0.9,6.6c0,0.2-0.1,0.5-0.1,0.7c-0.3,6.5,12.3,12.4,28.2,13.2
				c15.9,0.8,29.1-3.9,29.4-10.3c0-0.2,0-0.4,0-0.6l-0.2-6.2c0-0.2,0.1-0.4,0.1-0.5c0-0.4,0-0.9-0.1-1.3l0,0l0,0
				c-0.4-1.6-1.5-3.2-3.3-4.6c1-0.7,1.7-1.5,1.7-2.5c0-2.5-4.6-4.5-10.2-4.5c-2.3,0-4.5,0.4-6.2,0.9C199.1,56.4,195.9,56,192.5,55.8
				z M157.1,62c0-2.2,4.1-4.1,9.2-4.1c1.9,0,3.6,0.3,5.1,0.7c-4.5,1.8-7.3,4.3-7.6,7.2C159.9,65.4,157.1,63.8,157.1,62z M218.5,76.2
				c-0.3,6.2-12.8,10.5-27.9,9.8c-15.1-0.7-27-6.3-26.7-12.5l0.5-4.2c3,5.1,13.8,9.4,26.8,10c12.3,0.6,22.9-2.1,27-6.5l0.1,2.4
				C218.5,75.6,218.6,75.9,218.5,76.2z M218.4,68.9c-0.3,6.2-12.5,10.5-27.3,9.8s-26.5-6.3-26.2-12.5s12.5-10.5,27.3-9.8
				c3,0.2,5.9,0.5,8.6,1c0,0,0,0,0,0l1.7,0.4c0,0,0.1,0,0.1,0C212.1,60,218.7,64.3,218.4,68.9z M208.3,56.9c5.1,0,9.2,1.8,9.2,4.1
				c0,0.6-0.3,1.2-0.9,1.8c-2.9-2.2-7.2-4.1-12.5-5.3C205.3,57.1,206.7,56.9,208.3,56.9z"/>
			<path fill="#34495E" d="M191.7,92.1c-5.6,0-10.2,2-10.2,4.5c0,2.5,4.6,4.5,10.2,4.5c-5.1,0-9.2-1.8-9.2-4.1s4.1-4.1,9.2-4.1
				s9.2,1.8,9.2,4.1s-4.1,4.1-9.2,4.1c5.6,0,10.2-2,10.2-4.5C201.8,94.1,197.3,92.1,191.7,92.1z"/>
			<path fill="#34495E" d="M164.5,86.7c-5.6,0-10.2,2-10.2,4.5c0,2.5,4.6,4.5,10.2,4.5c-5.1,0-9.2-1.8-9.2-4.1s4.1-4.1,9.2-4.1
				s9.2,1.8,9.2,4.1s-4.1,4.1-9.2,4.1c5.6,0,10.2-2,10.2-4.5C174.7,88.8,170.1,86.7,164.5,86.7z"/>
			<path fill="#34495E" d="M159.3,80.6c0-2.5-4.6-4.5-10.2-4.5c-5.6,0-10.2,2-10.2,4.5c0,2.5,4.6,4.5,10.2,4.5
				c-5.1,0-9.2-1.8-9.2-4.1s4.1-4.1,9.2-4.1s9.2,1.8,9.2,4.1s-4.1,4.1-9.2,4.1C154.7,85.1,159.3,83.1,159.3,80.6z"/>
			<path fill="#34495E" d="M150.7,74.4c-5.1,0-9.2-1.8-9.2-4.1s4.1-4.1,9.2-4.1s9.2,1.8,9.2,4.1S155.7,74.4,150.7,74.4
				c5.6,0,10.2-2,10.2-4.5c0-2.5-4.6-4.5-10.2-4.5c-5.6,0-10.2,2-10.2,4.5C140.5,72.3,145.1,74.4,150.7,74.4z"/>
			<path fill="#34495E" d="M218.2,89.4c-5.6,0-10.2,2-10.2,4.5c0,2.5,4.6,4.5,10.2,4.5c-5.1,0-9.2-1.8-9.2-4.1s4.1-4.1,9.2-4.1
				s9.2,1.8,9.2,4.1s-4.1,4.1-9.2,4.1c5.6,0,10.2-2,10.2-4.5C228.3,91.4,223.8,89.4,218.2,89.4z"/>
			<path fill="#34495E" d="M224.4,84.8c0,2.5,4.6,4.5,10.2,4.5c-5.1,0-9.2-1.8-9.2-4.1s4.1-4.1,9.2-4.1s9.2,1.8,9.2,4.1
				s-4.1,4.1-9.2,4.1c5.6,0,10.2-2,10.2-4.5c0-2.5-4.6-4.5-10.2-4.5C228.9,80.3,224.4,82.3,224.4,84.8z"/>
			<path fill="#34495E" d="M231.9,76.3c-5.1,0-9.2-1.8-9.2-4.1s4.1-4.1,9.2-4.1s9.2,1.8,9.2,4.1S236.9,76.3,231.9,76.3
				c5.6,0,10.2-2,10.2-4.5c0-2.5-4.6-4.5-10.2-4.5c-5.6,0-10.2,2-10.2,4.5C221.7,74.3,226.2,76.3,231.9,76.3z"/>
			<path fill="#34495E" d="M213.4,199.3c-3.7-1.8-8.5,0.5-10.6,5c-2.1,4.5-0.8,9.6,2.9,11.4s8.5-0.5,10.6-5S217.1,201.1,213.4,199.3
				z M215.4,210.3c-1.9,3.9-6,5.9-9.2,4.4c-3.2-1.5-4.4-6-2.5-9.9c1.9-3.9,6-5.9,9.2-4.4S217.3,206.3,215.4,210.3z"/>
			<path fill="#34495E" d="M290.4,163.3c-3.7-1.8-8.5,0.5-10.6,5c-2.1,4.5-0.8,9.6,2.9,11.4c3.7,1.8,8.5-0.5,10.6-5
				C295.4,170.1,294.1,165,290.4,163.3z M292.4,174.2c-1.9,3.9-6,5.9-9.2,4.4c-3.2-1.5-4.4-6-2.5-9.9c1.9-3.9,6-5.9,9.2-4.4
				C293.1,165.9,294.3,170.3,292.4,174.2z"/>
			<path fill="#D81F47" d="M228.5,204.5c0.7,0.3,1.5,0,2.2-0.7l0,0c0,0,4.3,5.9,13.2,4.5c8.1-1.3,21.1-18.8,23.3-21.9
				c1.1,0.2,2.4-0.9,3-2.6c0.7-1.8,0.3-3.7-0.9-4.1c-1.2-0.4-2.7,0.7-3.3,2.5c-0.6,1.6-0.4,3.2,0.4,3.8c-2.8,4-22.2,31.1-34.8,16.4
				l0,0c0.1-0.2,0.2-0.3,0.2-0.5c0.7-1.8,0.3-3.7-0.9-4.1s-2.7,0.7-3.3,2.5C227,202.2,227.4,204,228.5,204.5z"/>
			<path fill="#34495E" d="M219.4,158.1c0.7-0.9,0.8-2,0.2-2.5c-0.6-0.5-1.7-0.1-2.4,0.8s-0.8,2-0.2,2.5
				C217.7,159.4,218.7,159.1,219.4,158.1z M217.4,156.6c0.6-0.7,1.4-1,1.9-0.7c0.5,0.4,0.4,1.3-0.1,2c-0.6,0.7-1.4,1-1.9,0.7
				C216.8,158.3,216.9,157.3,217.4,156.6z"/>
			<path fill="#34495E" d="M274.3,136.5c0.7-0.9,0.8-2,0.2-2.5c-0.6-0.5-1.7-0.1-2.4,0.8s-0.8,2-0.2,2.5S273.6,137.4,274.3,136.5z
				 M272.3,135c0.6-0.7,1.4-1,1.9-0.7c0.5,0.4,0.4,1.3-0.1,2s-1.4,1-1.9,0.7C271.7,136.6,271.7,135.7,272.3,135z"/>
			<path fill="#34495E" d="M34.2,96.6c0,0,23.7-34,79.4-52C113.5,44.6,58.6,60.1,34.2,96.6z"/>
			<path fill="#34495E" d="M46.4,92.5c16-13.1,35.1-6.3,35.1-6.3C62.7,77.2,46.4,92.5,46.4,92.5z"/>
			<path fill="#34495E" d="M207.7,133.3c-8.5,1.7-13.5,12.6-11.2,24.3c0.1,0.4,0.2,0.8,0.3,1.2c-1.8-11.3,3.3-22.8,11.6-24.4
				c8.3-1.7,16.5,7.1,19.2,18.2c-0.1-0.4-0.1-0.8-0.2-1.2C225.1,139.6,216.3,131.5,207.7,133.3z"/>
			<path fill="#34495E" d="M262.8,113.1c-8.6,1.6-13.8,12.3-11.7,24.1c0.1,0.4,0.2,0.8,0.3,1.2c-1.6-11.3,3.8-22.7,12.1-24.2
				c8.3-1.5,16.4,7.5,18.9,18.6c-0.1-0.4-0.1-0.8-0.2-1.2C280,119.9,271.3,111.6,262.8,113.1z"/>
		</g>
	</g>
</g>
</svg>
