<svg width="223" height="36" viewBox="0 0 223 36" fill="none" xmlns="http://www.w3.org/2000/svg">
<g id="QuickBooks-Connection" clip-path="url(#clip0_3442_13015)">
<path id="Vector" d="M219 0H4C1.79086 0 0 1.79086 0 4V32C0 34.2091 1.79086 36 4 36H219C221.209 36 223 34.2091 223 32V4C223 1.79086 221.209 0 219 0Z" fill="#2CA01C"/>
<path id="Vector_2" d="M35.3117 14.1121C34.4157 12.9281 32.6717 12.3841 31.1997 12.3841C27.7117 12.3841 25.0557 14.6721 25.0557 18.3041C25.0557 21.8401 27.5677 24.2881 31.1037 24.2881C33.0237 24.2881 34.4957 23.5521 35.4877 22.3041L33.8717 21.1681C33.2957 21.9521 32.3357 22.4801 31.1197 22.4801C28.7837 22.4801 27.2797 20.7681 27.2797 18.3041C27.2797 15.9681 28.8637 14.1601 31.1997 14.1601C32.1117 14.1601 33.1837 14.5121 33.7757 15.3281L35.3117 14.1121ZM36.0088 20.1281C36.0088 22.5441 37.8648 24.2241 40.1848 24.2241C42.5048 24.2241 44.3608 22.5441 44.3608 20.1281C44.3608 17.7121 42.5048 16.0961 40.1848 16.0961C37.8648 16.0961 36.0088 17.7121 36.0088 20.1281ZM37.9608 20.1281C37.9608 18.9281 38.6648 17.6641 40.1848 17.6641C41.7048 17.6641 42.4088 18.9281 42.4088 20.1281C42.4088 21.3281 41.7048 22.6241 40.1848 22.6241C38.6648 22.6241 37.9608 21.3281 37.9608 20.1281ZM46.2224 24.0001H48.1424V19.7761C48.1424 18.7521 48.7184 17.6961 49.9344 17.6961C51.1664 17.6961 51.3744 18.8321 51.3744 19.7441V24.0001H53.2944V19.2001C53.2944 17.6321 52.4624 16.0961 50.4624 16.0961C49.3264 16.0961 48.4144 16.7841 48.0784 17.5521H48.0464V16.3201H46.2224V24.0001ZM55.5349 24.0001H57.4549V19.7761C57.4549 18.7521 58.0309 17.6961 59.2469 17.6961C60.4789 17.6961 60.6869 18.8321 60.6869 19.7441V24.0001H62.6069V19.2001C62.6069 17.6321 61.7749 16.0961 59.7749 16.0961C58.6389 16.0961 57.7269 16.7841 57.3909 17.5521H57.3589V16.3201H55.5349V24.0001ZM66.3194 19.3921C66.3994 18.3201 67.3114 17.5361 68.4474 17.5361C69.6954 17.5361 70.2554 18.4001 70.2554 19.3921H66.3194ZM72.1754 20.2561C72.1754 17.4881 70.6074 16.0961 68.4634 16.0961C66.1434 16.0961 64.3994 17.7281 64.3994 20.2081C64.3994 22.7041 66.1594 24.2241 68.5274 24.2241C69.9834 24.2241 71.0714 23.7121 71.8234 22.6881L70.5434 21.6641C70.1114 22.2721 69.4714 22.6561 68.5114 22.6561C67.3914 22.6561 66.3994 21.8561 66.3194 20.7681H72.1594C72.1754 20.5921 72.1754 20.4321 72.1754 20.2561ZM80.5949 17.2961C79.9869 16.5441 78.8189 16.0961 77.6989 16.0961C75.4429 16.0961 73.5869 17.6641 73.5869 20.1601C73.5869 22.7201 75.4749 24.2241 77.7469 24.2241C78.8829 24.2241 79.9389 23.8401 80.5789 23.1521L79.3789 21.9361C79.0109 22.3841 78.3549 22.6241 77.7629 22.6241C76.3069 22.6241 75.5869 21.3601 75.5869 20.1601C75.5869 18.9601 76.2909 17.6961 77.6989 17.6961C78.3229 17.6961 78.9789 18.0161 79.2829 18.4481L80.5949 17.2961ZM82.0874 17.8561V21.4401C82.0874 22.9121 82.5514 24.1601 84.5834 24.1601C85.0154 24.1601 85.5274 24.0801 85.8634 23.9521L85.7994 22.4481C85.5754 22.5601 85.2394 22.6081 84.9834 22.6081C84.1354 22.6081 83.9754 22.1121 83.9754 21.4241V17.8561H85.8954V16.3201H83.9754V14.0961H82.0874V16.3201H80.7434V17.8561H82.0874ZM91.5249 17.8561V21.4401C91.5249 22.9121 91.9889 24.1601 94.0209 24.1601C94.4529 24.1601 94.9649 24.0801 95.3009 23.9521L95.2369 22.4481C95.0129 22.5601 94.6769 22.6081 94.4209 22.6081C93.5729 22.6081 93.4129 22.1121 93.4129 21.4241V17.8561H95.3329V16.3201H93.4129V14.0961H91.5249V16.3201H90.1809V17.8561H91.5249ZM96.2744 20.1281C96.2744 22.5441 98.1304 24.2241 100.45 24.2241C102.77 24.2241 104.626 22.5441 104.626 20.1281C104.626 17.7121 102.77 16.0961 100.45 16.0961C98.1304 16.0961 96.2744 17.7121 96.2744 20.1281ZM98.2264 20.1281C98.2264 18.9281 98.9304 17.6641 100.45 17.6641C101.97 17.6641 102.674 18.9281 102.674 20.1281C102.674 21.3281 101.97 22.6241 100.45 22.6241C98.9304 22.6241 98.2264 21.3281 98.2264 20.1281ZM122.792 22.3681H119.992V22.3361C121 21.6161 122.008 20.2241 122.008 18.1921C122.008 14.7521 119.464 12.3841 115.992 12.3841C112.52 12.3841 109.928 14.7521 109.928 18.1921C109.928 21.8721 112.344 24.0001 115.96 24.0001H122.792V22.3681ZM115.992 14.1921C118.28 14.1921 119.816 15.8881 119.816 18.1921C119.816 20.6081 118.2 22.2401 115.96 22.2401C113.688 22.2401 112.136 20.6081 112.136 18.1921C112.136 15.8881 113.8 14.1921 115.992 14.1921ZM131.121 16.3201H129.201V20.5441C129.201 21.5681 128.625 22.6241 127.409 22.6241C126.177 22.6241 125.969 21.4881 125.969 20.5761V16.3201H124.049V21.1201C124.049 22.6881 124.881 24.2241 126.881 24.2241C128.017 24.2241 128.929 23.5361 129.265 22.7681H129.297V24.0001H131.121V16.3201ZM133.457 24.0001H135.377V16.3201H133.457V24.0001ZM133.185 13.7121C133.185 14.3201 133.697 14.8641 134.401 14.8641C135.105 14.8641 135.649 14.3681 135.649 13.7121C135.649 13.0561 135.105 12.5601 134.401 12.5601C133.697 12.5601 133.185 13.1041 133.185 13.7121ZM144.267 17.2961C143.659 16.5441 142.491 16.0961 141.371 16.0961C139.115 16.0961 137.259 17.6641 137.259 20.1601C137.259 22.7201 139.147 24.2241 141.419 24.2241C142.555 24.2241 143.611 23.8401 144.251 23.1521L143.051 21.9361C142.683 22.3841 142.027 22.6241 141.435 22.6241C139.979 22.6241 139.259 21.3601 139.259 20.1601C139.259 18.9601 139.963 17.6961 141.371 17.6961C141.995 17.6961 142.651 18.0161 142.955 18.4481L144.267 17.2961ZM145.551 24.0001H147.471V20.0641H147.519L150.559 24.0001H153.103L149.567 19.7921L152.895 16.3201H150.431L147.519 19.5521H147.471V11.9041H145.551V24.0001ZM154.303 24.0001H158.383C160.527 24.0001 162.671 23.1681 162.671 20.7041C162.671 19.1841 161.647 18.2241 160.223 18.0321V18.0001C161.391 17.6481 162.191 16.8001 162.191 15.5201C162.191 13.4561 160.431 12.6721 158.719 12.6721H154.303V24.0001ZM156.319 14.3361H157.935C159.455 14.3361 160.175 14.7361 160.175 15.7441C160.175 16.7201 159.455 17.2801 158.111 17.2801H156.319V14.3361ZM156.319 19.0081H158.207C159.839 19.0081 160.655 19.4241 160.655 20.6081C160.655 22.0961 159.167 22.3041 158.127 22.3041H156.319V19.0081ZM164.118 20.1281C164.118 22.5441 165.974 24.2241 168.294 24.2241C170.614 24.2241 172.47 22.5441 172.47 20.1281C172.47 17.7121 170.614 16.0961 168.294 16.0961C165.974 16.0961 164.118 17.7121 164.118 20.1281ZM166.07 20.1281C166.07 18.9281 166.774 17.6641 168.294 17.6641C169.814 17.6641 170.518 18.9281 170.518 20.1281C170.518 21.3281 169.814 22.6241 168.294 22.6241C166.774 22.6241 166.07 21.3281 166.07 20.1281ZM173.884 20.1281C173.884 22.5441 175.74 24.2241 178.06 24.2241C180.38 24.2241 182.236 22.5441 182.236 20.1281C182.236 17.7121 180.38 16.0961 178.06 16.0961C175.74 16.0961 173.884 17.7121 173.884 20.1281ZM175.836 20.1281C175.836 18.9281 176.54 17.6641 178.06 17.6641C179.58 17.6641 180.284 18.9281 180.284 20.1281C180.284 21.3281 179.58 22.6241 178.06 22.6241C176.54 22.6241 175.836 21.3281 175.836 20.1281ZM184.129 24.0001H186.049V20.0641H186.097L189.137 24.0001H191.681L188.145 19.7921L191.473 16.3201H189.009L186.097 19.5521H186.049V11.9041H184.129V24.0001ZM198.147 17.2641C197.523 16.4801 196.371 16.0961 195.267 16.0961C193.747 16.0961 192.211 16.8321 192.211 18.5441C192.211 19.9841 193.347 20.4481 194.483 20.7201C195.651 20.9921 196.243 21.1841 196.243 21.8241C196.243 22.5121 195.571 22.7361 195.011 22.7361C194.179 22.7361 193.459 22.3201 193.043 21.7761L191.779 22.9601C192.515 23.7761 193.747 24.2241 194.931 24.2241C196.611 24.2241 198.131 23.5361 198.131 21.6641C198.131 20.1601 196.787 19.6481 195.651 19.3761C194.579 19.1201 193.987 18.9601 193.987 18.3681C193.987 17.7601 194.611 17.5361 195.219 17.5361C195.923 17.5361 196.563 17.9201 196.899 18.3681L198.147 17.2641Z" fill="white"/>
</g>
<defs>
<clipPath id="clip0_3442_13015">
<rect width="223" height="36" fill="white"/>
</clipPath>
</defs>
</svg>
