<svg version="1.1" xmlns="http://www.w3.org/2000/svg" width="717" height="512" viewBox="0 0 717 512">
  <title></title>
  <g id="icomoon-ignore">
  </g>
  <path fill="#000" opacity="0.25" d="M358.4 0h256v256h-256v-256z"></path>
  <path fill="#e6f1fa" d="M512 256c0 113.108-91.692 204.8-204.8 204.8s-204.8-91.692-204.8-204.8c0-113.108 91.692-204.8 204.8-204.8s204.8 91.692 204.8 204.8z"></path>
  <path fill="#022266" d="M366.452 166.439l-7.951-0.025c-46.236-0.422-92.043 8.772-134.42 26.978-11.888 5.356-19.365 16.904-19.281 29.582v109.565c0 75.406 47.179 143.027 118.677 170.101l15.232 5.761c12.673 4.798 26.707 4.798 39.384-0.002l15.224-5.759c71.502-27.075 118.681-94.695 118.681-170.102v-109.637c0.085-12.606-7.392-24.154-19.103-29.431-40.053-17.21-82.984-26.366-126.444-27.032zM358.298 188.012h0.204c43.147-0.394 85.892 8.185 125.439 25.176 3.68 1.661 6.144 5.465 6.116 9.643v109.709c0 66.47-41.587 126.076-104.613 149.942l-15.224 5.759c-7.61 2.881-16.030 2.881-23.635 0.002l-15.231-5.761c-63.022-23.864-104.608-83.47-104.608-149.94v-109.637c-0.028-4.249 2.435-8.054 6.293-9.792 39.368-16.912 82.113-25.492 125.261-25.098z"></path>
  <path fill="#0d71c8" d="M358.4 228.114c-30.539 0-55.296 24.177-55.296 54v21.6c0 5.964 4.952 10.8 11.059 10.8h88.474c6.108 0 11.059-4.836 11.059-10.8v-21.6c0-29.823-24.757-54-55.296-54zM360.671 249.789c17.264 1.14 30.906 15.177 30.906 32.325v10.8h-66.355v-10.8c0-17.894 14.854-32.4 33.178-32.4l2.272 0.075z"></path>
  <path fill="#022266" d="M405.358 296h-87.772c-18.178 0-32.914 14.506-32.914 32.4v64.8c0 17.894 14.736 32.4 32.914 32.4h87.772c18.178 0 32.914-14.506 32.914-32.4v-64.8c0-17.894-14.736-32.4-32.914-32.4zM317.587 317.6h87.772c6.060 0 10.971 4.836 10.971 10.8v64.8c0 5.964-4.912 10.8-10.971 10.8h-87.772c-6.060 0-10.971-4.836-10.971-10.8v-64.8c0-5.964 4.912-10.8 10.971-10.8z"></path>
  <path fill="#0d71c8" d="M361.472 345.372l1.673 0.091c7.146 0.778 12.822 6.479 13.596 13.657l0.090 1.681c0 8.521-6.877 15.428-15.36 15.428s-15.36-6.908-15.36-15.428c0-8.521 6.877-15.428 15.36-15.428z"></path>
</svg>