<svg id="Layer_1" data-name="Layer 1" xmlns="http://www.w3.org/2000/svg" viewBox="0 0 125.43 78.39"><defs><style>.cls-1{fill:#f9f9fa;}.cls-2{fill:#0a67b2;}.cls-3{fill:#faa634;}</style></defs><title>Untitled-3</title><rect class="cls-1" width="125.43" height="78.39" rx="4.18" ry="4.18"/><polygon class="cls-2" points="57.72 50.97 51.59 50.97 55.42 27.44 61.55 27.44 57.72 50.97"/><path class="cls-2" d="M83.75,88.08l-5.84,16.19-0.69-3.49h0L75.15,90.2a2.62,2.62,0,0,0-2.91-2.12H62.59l-0.11.4a22.89,22.89,0,0,1,6.41,2.69l5.32,20.45h6.38l9.75-23.53H83.75Z" transform="translate(-37.31 -60.64)"/><path class="cls-2" d="M131.94,111.61h5.63l-4.91-23.53h-4.93a2.82,2.82,0,0,0-2.83,1.75l-9.14,21.78h6.39l1.28-3.5h7.79Zm-6.74-8.32,3.22-8.81,1.81,8.81h-5Z" transform="translate(-37.31 -60.64)"/><path class="cls-2" d="M116.25,93.74l0.87-5.05a17.7,17.7,0,0,0-5.51-1c-3,0-10.26,1.33-10.26,7.79,0,6.08,8.48,6.16,8.48,9.35s-7.6,2.62-10.11.61l-0.91,5.28a17.16,17.16,0,0,0,6.92,1.33c4.18,0,10.49-2.17,10.49-8.06,0-6.12-8.55-6.69-8.55-9.35S113.63,92.29,116.25,93.74Z" transform="translate(-37.31 -60.64)"/><path class="cls-3" d="M77.21,100.78L75.15,90.2a2.62,2.62,0,0,0-2.91-2.12H62.59l-0.11.4A23.75,23.75,0,0,1,71.57,93,18.33,18.33,0,0,1,77.21,100.78Z" transform="translate(-37.31 -60.64)"/></svg>