<svg version="1.1" xmlns="http://www.w3.org/2000/svg" width="25" height="25" viewBox="0 0 512 512">
<title></title>
<g id="icomoon-ignore">
</g>
<path fill="#0D71C8" d="M348.885 423.552c1.936-1.931 3.134-4.601 3.134-7.552 0-5.891-4.776-10.666-10.666-10.666-0.007 0-0.014 0-0.020 0h-42.666c-5.891 0-10.666-4.776-10.666-10.666v0-138.667c0-17.673-14.327-32-32-32s-32 14.327-32 32v0 138.667c0 5.891-4.775 10.666-10.666 10.666v0h-42.666c-5.881 0.014-10.643 4.784-10.643 10.666 0 2.94 1.189 5.601 3.113 7.531l85.333 85.333c1.93 1.93 4.596 3.123 7.541 3.123s5.611-1.193 7.541-3.123v0z"></path>
<path fill="#0D71C8" d="M512 64c0-35.346-28.654-64-64-64v0h-384c-35.346 0-64 28.654-64 64v0 256c0 35.346 28.654 64 64 64v0h74.666c11.782 0 21.334-9.551 21.334-21.334v0 0c0-11.782-9.552-21.334-21.334-21.334v0h-74.666c-11.782 0-21.334-9.551-21.334-21.334v0-207.978c0-0.007 0-0.014 0-0.022 0-2.945 2.388-5.334 5.334-5.334 0 0 0 0 0 0h416c2.945 0 5.334 2.388 5.334 5.334v0 208c0 11.782-9.551 21.334-21.334 21.334v0h-74.666c-11.782 0-21.334 9.551-21.334 21.334v0 0c0 11.782 9.551 21.334 21.334 21.334v0h74.666c35.346 0 64-28.654 64-64v0zM92.715 64c-3.579 6.403-10.317 10.66-18.048 10.66s-14.468-4.257-17.995-10.556l-0.053-0.104c-1.968-3.020-3.178-6.691-3.285-10.639l-0.001-0.028c0.023-3.171 0.745-6.168 2.017-8.853l-0.054 0.128c3.405-7.465 10.787-12.568 19.366-12.608h0.005c7.711 0.083 14.415 4.314 17.994 10.564l0.054 0.102c1.971 3.019 3.181 6.691 3.285 10.639l0.001 0.027c-0.108 3.975-1.318 7.648-3.335 10.747l0.049-0.080zM167.381 64c-3.579 6.403-10.316 10.66-18.048 10.66s-14.469-4.257-17.994-10.556l-0.054-0.104c-1.968-3.020-3.178-6.691-3.285-10.639l-0-0.028c0.104-3.975 1.315-7.648 3.334-10.746l-0.048 0.080c3.579-6.402 10.316-10.66 18.048-10.66s14.469 4.258 17.994 10.556l0.054 0.104c1.97 3.019 3.181 6.691 3.285 10.639l0 0.027c-0.107 3.975-1.318 7.648-3.334 10.747l0.049-0.080zM242.048 64c-3.579 6.403-10.316 10.66-18.048 10.66s-14.469-4.257-17.994-10.556l-0.054-0.104c-1.968-3.020-3.178-6.691-3.285-10.639l-0-0.028c0.104-3.975 1.315-7.648 3.334-10.746l-0.048 0.080c3.579-6.402 10.316-10.66 18.048-10.66s14.469 4.258 17.994 10.556l0.054 0.104c1.97 3.019 3.181 6.691 3.285 10.639l0 0.027c-0.107 3.975-1.318 7.648-3.334 10.747l0.049-0.080z"></path>
</svg>