<svg width="20" height="20" viewBox="0 0 20 20" fill="none" xmlns="http://www.w3.org/2000/svg">
<path d="M19.6 10.2271C19.6 9.518 19.5364 8.83619 19.4182 8.18164H10V12.0498H15.3818C15.15 13.2998 14.4455 14.3589 13.3864 15.068V17.5771H16.6182C18.5091 15.8362 19.6 13.2725 19.6 10.2271Z" fill="#4285F4"/>
<path d="M9.99996 19.9999C12.7 19.9999 14.9636 19.1044 16.6181 17.5772L13.3863 15.0681C12.4909 15.6681 11.3454 16.0226 9.99996 16.0226C7.39542 16.0226 5.19087 14.2635 4.40451 11.8999H1.0636V14.4908C2.70905 17.759 6.09087 19.9999 9.99996 19.9999Z" fill="#34A853"/>
<path d="M4.40455 11.9002C4.20455 11.3002 4.09091 10.6593 4.09091 10.0002C4.09091 9.3411 4.20455 8.70019 4.40455 8.10019V5.50928H1.06364C0.386364 6.85928 0 8.38655 0 10.0002C0 11.6138 0.386364 13.1411 1.06364 14.4911L4.40455 11.9002Z" fill="#FBBC05"/>
<path d="M9.99996 3.97727C11.4681 3.97727 12.7863 4.48182 13.8227 5.47273L16.6909 2.60455C14.9591 0.990909 12.6954 0 9.99996 0C6.09087 0 2.70905 2.24091 1.0636 5.50909L4.40451 8.1C5.19087 5.73636 7.39542 3.97727 9.99996 3.97727Z" fill="#EA4335"/>
</svg>
