<svg width="16" height="16" viewBox="0 0 16 16" fill="none" xmlns="http://www.w3.org/2000/svg">
<rect width="16" height="16" rx="8" fill="#007B4A"/>
<g clip-path="url(#clip0_114_5898)">
<path fill-rule="evenodd" clip-rule="evenodd" d="M11.8331 4.10923C12.0257 4.28282 12.0584 4.60157 11.9062 4.82119L7.26079 11.524C7.15849 11.6762 7.02607 11.7986 6.87433 11.8813C6.72114 11.9647 6.55269 12.0052 6.38299 11.9995C6.2133 11.9937 6.04727 11.9418 5.89872 11.848C5.75193 11.7554 5.6264 11.6246 5.53232 11.4663L4.08312 9.12071C3.94174 8.89188 3.98978 8.57566 4.19043 8.41442C4.39108 8.25318 4.66836 8.30797 4.80974 8.5368L6.26158 10.8866L6.26759 10.8966C6.28329 10.9234 6.30436 10.9454 6.32905 10.961C6.35374 10.9766 6.38133 10.9852 6.40954 10.9862C6.43774 10.9871 6.46574 10.9804 6.4912 10.9665C6.51666 10.9527 6.53885 10.9321 6.55592 10.9064L6.56114 10.8987L11.2088 4.19259C11.361 3.97297 11.6405 3.93565 11.8331 4.10923Z" fill="white"/>
</g>
<defs>
<clipPath id="clip0_114_5898">
<rect width="8" height="8" fill="white" transform="translate(4 4)"/>
</clipPath>
</defs>
</svg>
